# xmcd CD database file
# Copyright (C) 1993-1998 Ti Kan
#
# Track frame offsets:
#	150
#	13612
#	30325
#	41425
#	55715
#	68612
#	82647
#	93115
#	107625
#	123342
#	136952
#	156505
#	169315
#
# Disc length: 2459 seconds
#
# Revision: 1
# Processed by: cddbd v1.4b41PL1 Copyright (c) Steve Scherf et al.
# Submitted via: CDValet v3.31 - Copyright (c) 1997 Greg Leichner
#
DISCID=9309990d
DTITLE=Tony Rice - Tony Rice Plays and Sings Bluegrass
DYEAR=1900
DGENRE=
TTITLE0=I've Waited as Long as I Can
TTITLE1=Brown Mountain Light
TTITLE2=How Mountain Girls Can Love
TTITLE3=Carolina Star
TTITLE4=Thunderclouds of Love
TTITLE5=On and On
TTITLE6=This Morning at Nine
TTITLE7=I Wonder Where You Are Tonight
TTITLE8=Galveston Flood
TTITLE9=Will You Be Loving Another Man
TTITLE10=Girl From the North Country
TTITLE11=Ain't Nobody Gonna Miss Me When I'm Gone
TTITLE12=I'll Stay Around
EXTD=Rounder CD - RCD 0253
EXTT0=
EXTT1=
EXTT2=
EXTT3=
EXTT4=
EXTT5=
EXTT6=
EXTT7=
EXTT8=
EXTT9=
EXTT10=
EXTT11=
EXTT12=
PLAYORDER=
